<svg id="Слой_1" xmlns="http://www.w3.org/2000/svg" xmlns:xlink="http://www.w3.org/1999/xlink" viewBox="0 0 147.1 55.9"><style>.st0{fill:#000}.st1{fill:#f7941d}.st2{clip-path:url(#SVGID_2_);fill:#000}</style><path class="st0" d="M98.4 0L81.5 35.1 64.6 0 49.9 0 49.9 17.6 59.3 39 59.3 12.2 78.8 51 84 51 103.6 12.2 103.6 17.2 103.6 21.4 103.6 21.5 103.6 22.4 103.6 35 103.6 49.9 103.6 55.9 113 55.9 113 21.9 113 20.6 113 15 113 0z"/><path class="st1" d="M29.7,11.4l10.2,23H19.5L29.7,11.4z M24.6,0L0,55.9h10.1l5.6-12.7h28l5.6,12.7h10.1L34.7,0H24.6z"/><defs><path id="SVGID_1_" d="M0 0H147.1V55.9H0z"/></defs><clipPath id="SVGID_2_"><use xlink:href="#SVGID_1_" overflow="visible"/></clipPath><path class="st2" d="M119.6,8.6h-1V0h1.4h1.2h1.5c8.5,0,14.7,1.6,18.6,4.9c3.9,3.3,5.8,8.3,5.8,15c0,6.8-2,11.7-6,14.9 c-4,3.1-10.1,4.7-18.3,4.7h-1.3H120h-1.4v-8.6h1.4h1.5h2.4c5.2,0,8.8-1,10.7-3c1.9-2,2.8-4.9,2.8-8.8c0-3.9-1.2-6.6-3.6-8.2 c-2.4-1.6-6.2-2.4-11.3-2.4h-1.2H119.6z"/></svg>